<svg xmlns="http://www.w3.org/2000/svg" width="19.781" height="20" viewBox="0 0 19.781 20"><defs><style>.cls-1{fill:#fff;fill-rule:evenodd}</style></defs><path id="icon-phone" class="cls-1" d="M309.126 4207h-1.46a4.975 4.975 0 0 0-4.82 3.88 28.455 28.455 0 0 0 0 12.2 4.989 4.989 0 0 0 4.828 3.92h1.452a1.993 1.993 0 0 0 1.978-2v-3a1.993 1.993 0 0 0-1.978-2h-.989v-6h.989a1.993 1.993 0 0 0 1.978-2v-3a1.993 1.993 0 0 0-1.978-2zm3.956 1v2a7 7 0 0 1 0 14v2a9 9 0 0 0 0-18zm4.945 9a4.977 4.977 0 0 0-4.945-5v2a3 3 0 0 1 0 6v2a4.977 4.977 0 0 0 4.945-5z" transform="translate(-302.188 -4207)"/></svg>